<svg width="32" height="32" viewBox="0 0 32 32" fill="none" xmlns="http://www.w3.org/2000/svg">
<path d="M9.99994 8.9999C10.0937 9.09286 10.1681 9.20346 10.2188 9.32532C10.2696 9.44718 10.2957 9.57789 10.2957 9.7099C10.2957 9.84191 10.2696 9.97262 10.2188 10.0945C10.1681 10.2163 10.0937 10.3269 9.99994 10.4199L5.39994 15.0199H28.9399C29.2052 15.0199 29.4595 15.1253 29.647 15.3128C29.8346 15.5003 29.9399 15.7547 29.9399 16.0199C29.9399 16.2851 29.8346 16.5395 29.647 16.727C29.4595 16.9145 29.2052 17.0199 28.9399 17.0199H5.41994L9.99994 21.5899C10.1862 21.7773 10.2907 22.0307 10.2907 22.2949C10.2907 22.5591 10.1862 22.8125 9.99994 22.9999C9.81258 23.1862 9.55913 23.2907 9.29494 23.2907C9.03076 23.2907 8.7773 23.1862 8.58994 22.9999L2.22994 16.6399C2.14434 16.5578 2.07623 16.4592 2.0297 16.3501C1.98317 16.2409 1.95918 16.1235 1.95918 16.0049C1.95918 15.8863 1.98317 15.7689 2.0297 15.6597C2.07623 15.5506 2.14434 15.452 2.22994 15.3699L8.57994 8.9999C8.6729 8.90617 8.78351 8.83178 8.90536 8.78101C9.02722 8.73024 9.15793 8.7041 9.28994 8.7041C9.42195 8.7041 9.55266 8.73024 9.67452 8.78101C9.79638 8.83178 9.90698 8.90617 9.99994 8.9999Z" fill="#8A8D8F"/>
</svg>
