<svg width="24" height="24" viewBox="0 0 24 24" fill="none" xmlns="http://www.w3.org/2000/svg">
<path d="M20.5079 18.1215L14.386 11.9996L20.5079 5.87773C21.1688 5.2168 21.1688 4.15273 20.5079 3.4918C19.847 2.83086 18.7829 2.83086 18.122 3.4918L12.0001 9.61367L5.87822 3.4918C5.21729 2.83086 4.15322 2.83086 3.49229 3.4918C2.83135 4.15273 2.83135 5.2168 3.49229 5.87773L9.61416 11.9996L3.49229 18.1215C2.83135 18.7824 2.83135 19.8465 3.49229 20.5074C4.15322 21.1684 5.21729 21.1684 5.87822 20.5074L12.0001 14.3855L18.122 20.5074C18.7829 21.1684 19.847 21.1684 20.5079 20.5074C21.1642 19.8465 21.1642 18.7777 20.5079 18.1215Z" fill="#8A8D8F"/>
</svg>
