<svg width="42" height="42" viewBox="0 0 42 42" fill="none" xmlns="http://www.w3.org/2000/svg">
	<circle cx="21" cy="21" r="20.5" stroke="white" />
	<path
		d="M29.4868 26.1402L25.4218 22.4442C25.2296 22.2696 24.9771 22.1764 24.7176 22.1845C24.4581 22.1925 24.2118 22.3011 24.0308 22.4872L21.6378 24.9482C21.0618 24.8382 19.9038 24.4772 18.7118 23.2882C17.5198 22.0952 17.1588 20.9342 17.0518 20.3622L19.5108 17.9682C19.6972 17.7874 19.8059 17.5411 19.814 17.2814C19.822 17.0218 19.7287 16.7693 19.5538 16.5772L15.8588 12.5132C15.6838 12.3206 15.4407 12.2037 15.1809 12.1875C14.9212 12.1713 14.6654 12.2569 14.4678 12.4262L12.2978 14.2872C12.1249 14.4608 12.0217 14.6917 12.0078 14.9362C11.9928 15.1862 11.7068 21.1082 16.2988 25.7022C20.3048 29.7072 25.3228 30.0002 26.7048 30.0002C26.9068 30.0002 27.0308 29.9942 27.0638 29.9922C27.3083 29.9786 27.5391 29.8749 27.7118 29.7012L29.5718 27.5302C29.7418 27.3333 29.8281 27.0776 29.8122 26.8179C29.7963 26.5582 29.6795 26.315 29.4868 26.1402Z"
		fill="white"
	/>
</svg>
