<svg width="42" height="42" viewBox="0 0 42 42" fill="none" xmlns="http://www.w3.org/2000/svg">
<circle cx="21" cy="21" r="20.5" stroke="#ADAFAF"/>
<path d="M8.56 16.688L10.816 14.96H12.848V26H10.816V16.88L8.56 18.672V16.688ZM19.3083 26.176C17.8576 26.176 16.7643 25.904 16.0283 25.36C15.3029 24.8053 14.9403 23.9787 14.9403 22.88C14.9403 22.1653 15.1323 21.5733 15.5163 21.104C15.9003 20.6347 16.4283 20.3093 17.1003 20.128C16.5243 19.9467 16.0869 19.6533 15.7883 19.248C15.5003 18.832 15.3563 18.336 15.3563 17.76C15.3563 16.7253 15.7083 15.9733 16.4123 15.504C17.1269 15.024 18.0923 14.784 19.3083 14.784C20.5563 14.784 21.5269 15.024 22.2203 15.504C22.9243 15.9733 23.2763 16.7253 23.2763 17.76C23.2763 18.336 23.1323 18.832 22.8443 19.248C22.5563 19.6533 22.1296 19.9467 21.5643 20.128C22.2149 20.3093 22.7269 20.6347 23.1003 21.104C23.4843 21.5627 23.6763 22.1547 23.6763 22.88C23.6763 25.0773 22.2203 26.176 19.3083 26.176ZM19.3083 21.008C18.5723 21.008 18.0069 21.1413 17.6123 21.408C17.2283 21.664 17.0363 22.0693 17.0363 22.624V22.992C17.0363 23.536 17.2336 23.9413 17.6283 24.208C18.0229 24.464 18.5829 24.592 19.3083 24.592C20.0229 24.592 20.5776 24.464 20.9723 24.208C21.3776 23.952 21.5803 23.5467 21.5803 22.992V22.624C21.5803 22.08 21.3829 21.6747 20.9883 21.408C20.6043 21.1413 20.0443 21.008 19.3083 21.008ZM19.3083 19.488C20.5563 19.488 21.1803 19.008 21.1803 18.048V17.792C21.1803 16.8427 20.5563 16.368 19.3083 16.368C18.0709 16.368 17.4523 16.8427 17.4523 17.792V18.048C17.4523 19.008 18.0709 19.488 19.3083 19.488ZM28.7088 21.232H25.4928V19.552H28.7088V16.368H30.4368V19.552H33.6528V21.232H30.4368V24.416H28.7088V21.232Z" fill="#ADAFAF"/>
</svg>
