<svg width="15" height="3" viewBox="0 0 15 3" fill="none" xmlns="http://www.w3.org/2000/svg">
<path d="M7.5 0.0625C6.70488 0.0625 6.0625 0.704883 6.0625 1.5C6.0625 2.29512 6.70488 2.9375 7.5 2.9375C8.29512 2.9375 8.9375 2.29512 8.9375 1.5C8.9375 0.704883 8.29512 0.0625 7.5 0.0625Z" fill="#ADAFAF"/>
<path d="M1.76807 0.0625C0.972949 0.0625 0.330566 0.704883 0.330566 1.5C0.330566 2.29512 0.972949 2.9375 1.76807 2.9375C2.56318 2.9375 3.20557 2.29512 3.20557 1.5C3.20557 0.704883 2.55869 0.0625 1.76807 0.0625Z" fill="#ADAFAF"/>
<path d="M13.25 0.0625C12.4549 0.0625 11.8125 0.704883 11.8125 1.5C11.8125 2.29512 12.4549 2.9375 13.25 2.9375C14.0451 2.9375 14.6875 2.29512 14.6875 1.5C14.6875 0.704883 14.0451 0.0625 13.25 0.0625Z" fill="#ADAFAF"/>
</svg>
