<svg width="129" height="34" viewBox="0 0 129 34" fill="none" xmlns="http://www.w3.org/2000/svg">
<g clip-path="url(#clip0_52_8020)">
<path d="M11.468 0C9.07463 0 6.23628 2.38504 3.89683 6.39036C1.45626 10.5423 0 15.6791 0 20.1419C0 26.6754 3.53951 33.2613 11.468 33.2613C19.3965 33.2613 22.936 26.6754 22.936 20.1419C22.936 15.6791 21.4798 10.5423 19.0527 6.39385C16.6896 2.38504 13.8547 0 11.468 0Z" fill="#E30611"/>
<path d="M73.3857 9.79855H81.412V31.4769H90.0113V9.79855H98.0376V1.78091H73.3857V9.79855Z" fill="#E30611"/>
<path d="M116.386 9.79855H129V1.78091H116.386C104.797 1.78091 98.6074 7.74874 98.6074 16.6289C98.6074 25.5091 104.793 31.4769 116.386 31.4769H129V23.4593H116.386C111.023 23.4593 107.497 21.4723 107.497 16.6289C107.497 11.7855 111.023 9.79855 116.386 9.79855Z" fill="#E30611"/>
<path d="M55.8939 1.78091L51.3094 19.5063L46.7249 1.78091H31.532V31.4769H40.1313V7.32272L46.3811 31.4769H56.2411L62.4943 7.30875V31.4769H71.0936V1.78091H55.8939Z" fill="#E30611"/>
</g>
<defs>
<clipPath id="clip0_52_8020">
<rect width="129" height="33.2578" fill="white"/>
</clipPath>
</defs>
</svg>
