<svg width="19" height="19" viewBox="0 0 19 19" fill="none" xmlns="http://www.w3.org/2000/svg">
<path d="M9.61723 6.464C9.06523 6.464 8.64523 6.572 8.35723 6.788C8.07723 7.004 7.91723 7.368 7.87723 7.88H6.74923C6.79723 7.088 7.06923 6.512 7.56523 6.152C8.06923 5.784 8.75323 5.6 9.61723 5.6C10.4332 5.6 11.0732 5.772 11.5372 6.116C12.0092 6.452 12.2452 6.976 12.2452 7.688C12.2452 8.072 12.1852 8.38 12.0652 8.612C11.9532 8.844 11.8092 9.04 11.6332 9.2C11.4572 9.352 11.2652 9.488 11.0572 9.608C10.8572 9.72 10.6692 9.848 10.4932 9.992C10.3172 10.128 10.1692 10.296 10.0492 10.496C9.93723 10.696 9.88123 10.96 9.88123 11.288V11.636H8.82523V11.288C8.82523 10.888 8.88123 10.56 8.99323 10.304C9.10523 10.048 9.24523 9.836 9.41323 9.668C9.58923 9.492 9.77323 9.344 9.96523 9.224C10.1652 9.104 10.3492 8.984 10.5172 8.864C10.6932 8.744 10.8372 8.608 10.9492 8.456C11.0612 8.304 11.1172 8.104 11.1172 7.856V7.544C11.1172 7.168 10.9772 6.896 10.6972 6.728C10.4252 6.552 10.0652 6.464 9.61723 6.464ZM10.0732 13.4C10.0732 13.88 9.82923 14.12 9.34123 14.12C8.87723 14.12 8.64523 13.88 8.64523 13.4C8.64523 12.928 8.87723 12.692 9.34123 12.692C9.82923 12.692 10.0732 12.928 10.0732 13.4Z" fill="#8A8D8F"/>
<circle cx="9.5" cy="9.5" r="9" stroke="#E6E8F0"/>
</svg>
