<svg width="18" height="18" viewBox="0 0 18 18" fill="none" xmlns="http://www.w3.org/2000/svg">
<path d="M17.6234 16.1066L13.5805 12.0637C14.5538 10.7679 15.0793 9.19064 15.0775 7.57C15.0775 3.43039 11.7096 0.0625 7.57 0.0625C3.43039 0.0625 0.0625 3.43039 0.0625 7.57C0.0625 11.7096 3.43039 15.0775 7.57 15.0775C9.19064 15.0793 10.7679 14.5538 12.0637 13.5805L16.1066 17.6234C16.3113 17.8063 16.5782 17.904 16.8526 17.8963C17.127 17.8886 17.388 17.7762 17.5821 17.5821C17.7762 17.388 17.8886 17.127 17.8963 16.8526C17.904 16.5782 17.8063 16.3113 17.6234 16.1066ZM2.2075 7.57C2.2075 6.5094 2.52201 5.47261 3.11124 4.59076C3.70048 3.7089 4.53799 3.02157 5.51786 2.6157C6.49773 2.20982 7.57595 2.10363 8.61617 2.31054C9.6564 2.51745 10.6119 3.02818 11.3619 3.77814C12.1118 4.5281 12.6225 5.48361 12.8295 6.52383C13.0364 7.56405 12.9302 8.64227 12.5243 9.62214C12.1184 10.602 11.4311 11.4395 10.5492 12.0288C9.66739 12.618 8.6306 12.9325 7.57 12.9325C6.1483 12.9308 4.78532 12.3653 3.78002 11.36C2.77473 10.3547 2.20921 8.9917 2.2075 7.57Z" fill="#8A8D8F"/>
</svg>
