<svg width="18" height="18" viewBox="0 0 18 18" fill="none" xmlns="http://www.w3.org/2000/svg">
<path d="M6.36189 6.15818C6.36189 6.15818 3.20189 6.50818 1.09389 6.74218C0.90389 6.76518 0.73589 6.89218 0.67289 7.08518C0.60989 7.27818 0.67289 7.47918 0.81289 7.60618C2.37889 9.03518 4.73189 11.1752 4.73189 11.1752C4.72989 11.1752 4.08589 14.2882 3.65789 16.3652C3.62189 16.5532 3.68989 16.7522 3.85389 16.8712C4.01689 16.9902 4.22689 16.9922 4.39189 16.8992C6.23589 15.8512 8.99789 14.2752 8.99789 14.2752C8.99789 14.2752 11.7609 15.8512 13.6019 16.9002C13.7699 16.9922 13.9799 16.9902 14.1429 16.8712C14.3069 16.7522 14.3749 16.5532 14.3379 16.3662C13.9099 14.2882 13.2669 11.1752 13.2669 11.1752C13.2669 11.1752 15.6199 9.03518 17.1859 7.60918C17.3259 7.47818 17.3879 7.27718 17.3259 7.08518C17.2639 6.89318 17.0959 6.76618 16.9059 6.74418C14.7979 6.50818 11.6369 6.15818 11.6369 6.15818C11.6369 6.15818 10.3269 3.26018 9.45389 1.32818C9.37189 1.15518 9.19989 1.03418 8.99789 1.03418C8.79589 1.03418 8.62289 1.15618 8.54489 1.32818C7.67089 3.26018 6.36189 6.15818 6.36189 6.15818Z" fill="#FDBE3B"/>
</svg>
